<svg width="184" height="47" viewBox="0 0 184 47" fill="none" xmlns="http://www.w3.org/2000/svg">
<g clip-path="url(#clip0_48_343)">
<path d="M63.2769 46.5146C63.443 46.5146 63.5999 46.4988 63.7448 46.467C63.8926 46.4352 64.0707 46.3844 64.282 46.3113V46.7052C64.1642 46.7815 63.9922 46.8387 63.7688 46.8801C63.5456 46.9213 63.3433 46.9404 63.1623 46.9404C62.3746 46.9404 61.7408 46.6926 61.258 46.1969C60.775 45.7013 60.5336 45.0627 60.5336 44.2811C60.5336 43.687 60.6513 43.1817 60.8837 42.7719C61.116 42.3589 61.4239 42.0317 61.8042 41.7902C62.1845 41.5455 62.6491 41.4248 63.1954 41.4248C63.5516 41.4248 63.8383 41.4725 64.0586 41.5709L63.968 42.1174C63.7417 42.0412 63.5486 41.984 63.3946 41.949C63.2407 41.9141 63.0807 41.8951 62.9178 41.8951C62.5859 41.8951 62.2659 41.9903 61.9551 42.1841C61.6473 42.3779 61.4088 42.6385 61.2368 42.9657C61.0648 43.293 60.9803 43.6711 60.9803 44.1C60.9803 44.8403 61.1915 45.428 61.6171 45.8633C62.0426 46.2986 62.5949 46.5146 63.2769 46.5146ZM66.6879 39.0928L67.3067 39.0705C67.2644 40.0332 67.2433 41.2469 67.2433 42.7115C67.2433 44.1635 67.2704 45.5265 67.3278 46.8038H66.7181C66.7846 45.6695 66.8178 44.3034 66.8178 42.7115C66.8178 41.3676 66.7755 40.1634 66.6879 39.0928ZM73.941 46.8133C73.8987 46.6099 73.8776 46.4352 73.8776 46.2891H73.8565C73.6543 46.4606 73.4038 46.6099 73.1021 46.7402C72.8002 46.8673 72.4743 46.9308 72.1212 46.9308C71.3969 46.9308 70.92 46.7625 70.6876 46.4289C70.4583 46.0953 70.3435 45.6409 70.3435 45.0691L70.3466 44.3732C70.3466 44.2875 70.3496 44.1635 70.3526 44.0015C70.3617 43.8013 70.3647 43.5312 70.3647 43.1977C70.3647 42.7306 70.3435 42.2064 70.3013 41.625L70.8506 41.5932C70.8235 42.2318 70.8114 42.9594 70.8114 43.7759C70.8114 44.4336 70.8295 44.9642 70.8626 45.374C70.8958 45.7838 71.0045 46.0699 71.1856 46.235C71.3698 46.3971 71.6896 46.4797 72.1514 46.4797C72.8757 46.4797 73.44 46.2764 73.8475 45.8729C73.8475 43.687 73.8324 42.27 73.8052 41.625L74.294 41.5932L74.2881 41.9649C74.2699 43.0611 74.2609 43.9284 74.2609 44.5702C74.2609 45.3295 74.2911 46.073 74.3544 46.8038L73.941 46.8133ZM77.6871 46.5909H77.666L77.5724 46.8038H77.1891C77.2223 45.768 77.2403 44.405 77.2403 42.7115C77.2403 41.2977 77.2132 40.1032 77.1559 39.1245L77.7293 39.0705C77.6962 39.4422 77.678 40.4621 77.678 42.1301H77.6991C77.8591 41.9236 78.0885 41.7552 78.3903 41.6186C78.692 41.482 79.0241 41.4121 79.3832 41.4121C80.0742 41.4121 80.6145 41.6631 81.0038 42.1619C81.3931 42.6608 81.5863 43.274 81.5863 44.0015C81.5863 44.8562 81.3569 45.5583 80.9012 46.1111C80.4455 46.664 79.863 46.9404 79.1477 46.9404C78.8219 46.9404 78.5321 46.9054 78.2817 46.8323C78.0311 46.7625 77.8349 46.6831 77.6871 46.5909ZM77.6569 42.6449C77.6569 44.0174 77.678 45.1897 77.7203 46.1619C78.0764 46.4193 78.52 46.5464 79.0513 46.5464C79.7423 46.5464 80.2553 46.3081 80.5874 45.8316C80.9224 45.3549 81.0884 44.7767 81.0884 44.1C81.0884 43.3565 80.9163 42.7973 80.5723 42.4193C80.2312 42.0412 79.7876 41.8506 79.2414 41.8506C78.526 41.8506 77.9979 42.1142 77.6569 42.6449ZM87.7989 39.0928L88.4145 39.0705L88.3965 39.6837C88.3723 40.9609 88.3602 41.7997 88.3602 42.1968H88.3723C88.6529 41.9458 88.9517 41.752 89.2716 41.6218C89.5945 41.4915 89.9024 41.4248 90.2011 41.4248C90.7474 41.4248 91.1729 41.5645 91.4838 41.8442C91.7946 42.1206 91.9486 42.6067 91.9486 43.2962V43.6902C91.9425 43.814 91.9395 44.0174 91.9395 44.3034C91.9395 45.1643 91.9425 45.9967 91.9486 46.8038H91.4295C91.4988 45.8538 91.5321 44.6942 91.5321 43.3184C91.5321 42.8037 91.4144 42.4351 91.176 42.2096C90.9375 41.984 90.5966 41.8728 90.1499 41.8728C89.5553 41.8728 88.9608 42.1079 88.3602 42.5781C88.3602 44.8244 88.3753 46.235 88.4025 46.8038H87.9044C87.9316 45.7076 87.9467 44.3446 87.9467 42.7115C87.9467 41.123 87.8984 39.9156 87.7989 39.0928ZM94.6052 44.4082C94.6052 43.4709 94.8406 42.7306 95.3114 42.1873C95.7821 41.644 96.3586 41.3708 97.0437 41.3708C97.584 41.3708 98.0789 41.59 98.5346 42.0253C98.9902 42.4606 99.2166 43.1214 99.2166 44.0142C99.2166 44.9355 98.9782 45.6663 98.5044 46.2065C98.0305 46.7465 97.4662 47.0166 96.8083 47.0166C96.1805 47.0166 95.6554 46.7847 95.2359 46.3208C94.8163 45.8538 94.6052 45.2183 94.6052 44.4082ZM95.0518 44.1603C95.0518 44.8912 95.2208 45.4884 95.5618 45.9523C95.9029 46.4129 96.3525 46.6449 96.9139 46.6449C97.5477 46.6449 98.0155 46.3876 98.3203 45.8697C98.6251 45.3517 98.7791 44.8021 98.7791 44.2271C98.7791 43.5153 98.6039 42.9212 98.2569 42.4479C97.9098 41.9744 97.4601 41.7361 96.9018 41.7361C96.2651 41.7361 95.7973 41.9935 95.4985 42.5113C95.1997 43.0261 95.0518 43.5757 95.0518 44.1603ZM105.658 46.8133C105.616 46.6099 105.594 46.4352 105.594 46.2891H105.573C105.371 46.4606 105.121 46.6099 104.819 46.7402C104.517 46.8673 104.191 46.9308 103.838 46.9308C103.114 46.9308 102.637 46.7625 102.404 46.4289C102.175 46.0953 102.06 45.6409 102.06 45.0691L102.063 44.3732C102.063 44.2875 102.066 44.1635 102.069 44.0015C102.079 43.8013 102.081 43.5312 102.081 43.1977C102.081 42.7306 102.06 42.2064 102.018 41.625L102.567 41.5932C102.54 42.2318 102.528 42.9594 102.528 43.7759C102.528 44.4336 102.546 44.9642 102.579 45.374C102.613 45.7838 102.721 46.0699 102.902 46.235C103.086 46.3971 103.406 46.4797 103.868 46.4797C104.592 46.4797 105.157 46.2764 105.564 45.8729C105.564 43.687 105.549 42.27 105.522 41.625L106.011 41.5932L106.005 41.9649C105.987 43.0611 105.978 43.9284 105.978 44.5702C105.978 45.3295 106.008 46.073 106.071 46.8038L105.658 46.8133ZM108.598 46.6227L108.713 46.1079C108.945 46.2223 109.199 46.3049 109.473 46.3557C109.748 46.4066 110.065 46.432 110.418 46.432C110.75 46.432 111.012 46.3494 111.206 46.181C111.399 46.0127 111.495 45.7934 111.495 45.5297C111.495 45.3104 111.444 45.1166 111.344 44.9483C111.245 44.7799 111.012 44.621 110.65 44.4717C110.291 44.3192 109.956 44.1698 109.648 44.0206C109.34 43.8712 109.111 43.6902 108.963 43.4804C108.815 43.2708 108.743 43.0293 108.743 42.7592C108.743 42.3653 108.891 42.0539 109.19 41.8251C109.488 41.5932 109.866 41.4789 110.318 41.4789C110.816 41.4789 111.281 41.5455 111.719 41.6822L111.598 42.1396C111.257 41.9903 110.813 41.9172 110.267 41.9172C109.926 41.9172 109.657 41.9967 109.458 42.1587C109.259 42.3175 109.159 42.5145 109.159 42.7496C109.159 43.0134 109.265 43.2231 109.476 43.3724C109.688 43.5217 110.044 43.7061 110.542 43.9189C111.04 44.1317 111.393 44.3446 111.598 44.5606C111.806 44.7735 111.909 45.0722 111.909 45.4567C111.909 45.9141 111.764 46.2668 111.471 46.5178C111.181 46.7688 110.78 46.8927 110.267 46.8927C109.688 46.8927 109.132 46.8038 108.598 46.6227ZM114.798 44.0682C114.798 44.7767 115.003 45.3613 115.416 45.822C115.83 46.2827 116.391 46.5146 117.094 46.5146C117.629 46.5146 118.072 46.4574 118.425 46.3431L118.353 46.7815C118.244 46.8165 118.078 46.8514 117.852 46.8864C117.626 46.9213 117.387 46.9404 117.137 46.9404C116.216 46.9404 115.525 46.6862 115.063 46.1778C114.602 45.6664 114.369 45.0372 114.369 44.2906C114.369 43.8935 114.414 43.5281 114.508 43.1881C114.602 42.8482 114.737 42.5368 114.921 42.2572C115.359 41.6568 115.92 41.3581 116.605 41.3581C117.224 41.3581 117.701 41.5677 118.042 41.9872C118.383 42.4066 118.555 42.9244 118.555 43.5408C118.555 43.7409 118.549 43.903 118.534 44.0238L114.798 44.0682ZM114.828 43.6774H118.087C118.087 43.0611 117.961 42.5876 117.707 42.2572C117.454 41.9236 117.079 41.7584 116.584 41.7584C116.123 41.7584 115.736 41.9204 115.422 42.2477C115.109 42.5749 114.909 43.0515 114.828 43.6774Z" fill="#BC9D65"/>
<path fill-rule="evenodd" clip-rule="evenodd" d="M159.139 24.4966C158.689 25.5991 157.824 27.8499 156.912 28.536C156.557 28.8026 156.256 28.9235 155.816 28.9941C155.545 29.0377 155.559 28.9675 155.446 29.1358C155.53 29.3715 155.842 29.3582 156.292 29.4183C157.928 29.6368 161.545 29.6504 163.131 29.3249C163.451 29.2593 163.351 29.3385 163.378 29.0727C163.365 29.062 163.345 29.0528 163.334 29.0482L162.641 28.9443C160.542 28.6177 161.097 26.8654 161.563 24.8907C161.773 23.9997 162.779 20.1988 163.069 19.5179L174.886 19.5173C175.088 19.6758 175.347 20.6341 175.444 20.9285L176.838 25.2503C177.055 25.9636 177.704 27.7216 177.182 28.2592C176.747 28.7085 175.733 28.8978 175.082 28.973C174.857 28.999 174.444 28.95 174.332 29.1359C174.407 29.333 174.205 29.2171 174.525 29.2988C174.55 29.3053 174.777 29.3251 174.821 29.3295C175.04 29.3512 175.218 29.3729 175.438 29.3931C177.516 29.5842 179.67 29.6477 181.752 29.5042C182.133 29.478 182.55 29.4342 182.933 29.3935C183.836 29.2976 183.894 29.3848 183.932 29.0728L183.554 28.9788C181.671 28.8421 181.097 28.1992 180.346 26.4077C179.731 24.939 179.118 23.4936 178.568 21.9702C176.383 15.9135 174.207 9.75374 171.687 3.86941C171.032 2.34072 170.394 0.96841 168.899 0.464439C168.025 0.169981 167.057 0.193703 166.136 0.315874C165.676 0.376839 165.252 0.452364 164.827 0.567539C164.121 0.75885 163.875 0.752804 163.915 1.06762C165.904 1.3547 167.002 1.03374 168.46 3.30936C170.163 5.96555 172.25 11.9978 173.457 15.2564L174.314 17.7607H163.615C163.673 17.2269 164.922 12.9586 165.175 12.0322C165.642 10.315 166.36 8.45555 165.989 6.65817C165.939 6.41426 165.897 6.18125 165.706 6.03682C165.558 6.31923 165.327 7.25123 165.211 7.65252C164.233 11.0221 162.629 15.104 161.425 18.4328C160.697 20.4446 159.936 22.5451 159.139 24.4966Z" fill="#BC9D65"/>
<path fill-rule="evenodd" clip-rule="evenodd" d="M121.38 1.04675C121.985 1.28988 124.223 0.733421 126.671 2.64438C127.217 3.07076 127.54 3.44634 128.014 3.92528C128.187 4.09995 128.266 4.1359 128.419 4.33007C128.909 4.95373 129.411 5.62005 129.918 6.27401L144.572 26.1661C145.048 26.8417 145.528 27.4737 146.019 28.1595C147.152 29.7404 146.902 29.5919 148.042 29.5801C148.074 29.0144 148.207 26.4521 148.021 26.1179C147.947 25.9848 147.717 25.71 147.623 25.5777C147.496 25.3968 147.383 25.2523 147.25 25.0744C146.996 24.7351 146.732 24.4134 146.504 24.0685C145.562 22.6437 143.799 20.3649 142.74 18.8822L132.215 4.43666C130.999 2.78591 129.719 1.05328 127.32 0.463617C125.482 0.0116863 123.688 0.289066 121.878 0.681566C121.822 0.693855 121.541 0.752409 121.517 0.762848C121.287 0.863487 121.321 0.73591 121.38 1.04675Z" fill="#BC9D65"/>
<path fill-rule="evenodd" clip-rule="evenodd" d="M32.4163 0.542227C32.5576 0.669056 32.2698 0.564917 32.5874 0.663275C32.6204 0.673508 32.8076 0.694981 32.8545 0.701342C33.0191 0.723827 33.1929 0.754492 33.3404 0.782589C36.6019 1.40411 36.2394 3.22111 36.2926 5.71726C36.4338 12.3426 36.414 19.2946 36.1943 25.9165C36.1663 26.761 36.1358 27.1731 35.7309 27.7372C35.1692 28.5198 33.9719 28.8104 33.0558 28.9856C32.7498 29.044 32.7902 28.9867 32.7838 29.2621C33.4949 29.7647 40.1 29.5731 41.9228 29.3786C42.3296 29.3352 42.7223 29.1136 42.0406 28.9613C38.6605 28.2066 39.2312 26.9704 39.1088 23.5802C38.9076 18.0019 39.0791 11.7119 39.1915 6.09687C39.2529 3.02555 38.7493 1.30717 42.0836 0.700291C42.3441 0.65287 42.3229 0.725269 42.43 0.542227C42.2563 0.312943 41.5396 0.375284 41.2453 0.354969C38.1016 0.138161 35.9002 0.247713 32.8419 0.381445C32.4037 0.400581 32.4534 0.416912 32.4163 0.542227Z" fill="#BC9D65"/>
<path fill-rule="evenodd" clip-rule="evenodd" d="M77.8983 4.17715C78.3573 5.28051 78.7516 5.73989 78.8476 7.10855C79.0121 9.45481 78.4375 11.199 76.8533 12.8191C75.2364 14.4726 74.0129 14.8495 72.1368 15.8315L73.3843 18.1227C75.1269 21.2517 78.0917 26.6237 80.7715 28.5783C81.4451 29.0696 82.3156 29.498 83.3182 29.5706C84.1045 29.6274 85.7481 29.4531 86.2582 29.0554C86.1009 28.9286 85.1401 28.843 84.1371 28.1735C80.9534 26.0485 78.2438 21.1032 76.2019 17.7134L75.0747 15.8173C75.1201 15.7723 75.0994 15.788 75.1865 15.7276L75.4259 15.5931C77.3555 14.6117 78.7226 13.9082 80.2278 12.1583C82.9674 8.97332 82.3179 2.76121 77.3962 0.650593C76.2921 0.177076 75.0584 -0.0394859 73.7287 -0.0401211C72.8875 -0.0404968 70.4014 0.032793 69.9114 0.478998C70.5097 0.669842 73.2851 0.267748 76.0245 2.11365C76.5115 2.44177 77.6974 3.69424 77.8983 4.17715Z" fill="#BC9D65"/>
<path fill-rule="evenodd" clip-rule="evenodd" d="M10.1855 0.668036C10.0337 0.4667 8.08247 0.401474 7.6935 0.372517C5.36488 0.199389 3.36736 0.149548 1.04628 0.441444C0.782927 0.474592 0.090767 0.456995 0.0098877 0.714003C0.397269 0.977242 2.37165 0.698311 3.16325 2.84806C4.62677 6.82279 6.03079 10.4004 7.43918 14.5184L10.5774 23.3728C11.0179 24.77 12.7363 29.0566 13.3208 29.8345C14.0775 29.8213 15.2133 28.2996 15.636 27.7501C15.9368 27.3593 16.2242 26.876 16.5038 26.4247C16.7143 26.0849 17.2786 25.3708 17.3109 25.0191C16.8634 25.3085 16.3765 25.7913 15.7859 26.0725C15.0198 26.4371 14.6482 25.757 14.3584 25.2594C13.5023 23.7897 10.5308 15.3425 10.1072 14.069C9.52226 12.3109 8.63445 10.0146 8.13009 8.31844C7.73242 6.98112 6.28782 3.29533 6.6943 2.21535C6.84094 1.82571 6.89301 1.60475 7.20061 1.40755C7.70378 1.08503 8.56397 0.948427 9.15338 0.882263C9.34599 0.860676 9.54059 0.839521 9.73352 0.821751C9.98005 0.798965 10.0899 0.848536 10.1855 0.668036Z" fill="#BC9D65"/>
<path fill-rule="evenodd" clip-rule="evenodd" d="M60.5371 0.857548C60.7457 0.980991 60.3499 0.877113 60.7394 0.967522C60.7745 0.975697 60.9309 0.986681 60.9776 0.990871C64.4384 1.3017 64.294 2.94834 64.3221 5.97035C64.3759 11.752 64.3904 18.0724 64.2727 23.8346C64.2238 26.2289 64.5601 28.1792 62.5116 28.7995C62.2132 28.8898 61.9099 28.9532 61.586 28.9996C61.0289 29.0793 60.8489 28.9829 60.7421 29.1987C60.8058 29.3393 60.6326 29.3137 61.3255 29.3604C61.532 29.3742 61.7413 29.3902 61.946 29.4058C65.6947 29.6918 66.8979 29.5823 70.4878 29.3511C71.1284 29.3099 70.9507 29.3312 71.026 29.1987C70.9536 28.9533 70.8977 29.0249 70.5779 29.0152C69.4547 28.9812 68.0317 28.8311 67.5133 27.7135C67.1183 26.8618 67.1974 24.2096 67.179 23.0777C67.0713 16.4625 67.1119 9.69703 67.1122 3.06679C67.1122 2.23757 67.1801 1.44286 66.7436 0.913448C65.8625 -0.155195 62.7897 0.308947 61.4931 0.491034C61.0241 0.556955 60.5371 0.498627 60.5371 0.857548Z" fill="#BC9D65"/>
<path fill-rule="evenodd" clip-rule="evenodd" d="M96.4121 3.47207C96.5296 3.49025 97.6308 2.78479 98.2089 2.542C100.422 1.61266 103.039 1.43274 105.392 1.9395C108.588 2.6281 110.557 4.4599 111.887 6.55602C114.608 10.8446 114.51 17.4878 111.721 22.0724C111.518 22.4065 110.7 23.5045 110.655 23.7705C111.309 23.5871 112.381 22.853 112.769 22.5081C113.378 21.9673 113.842 21.4659 114.344 20.7701C115.247 19.518 115.994 17.9666 116.354 16.0687C117.751 8.69611 114.162 0.764135 106.087 0.0227604C103.033 -0.257538 99.2704 0.477518 97.1147 2.62603L96.4266 3.3631C96.3811 3.46793 96.4013 3.41915 96.4121 3.47207Z" fill="#BC9D65"/>
<path fill-rule="evenodd" clip-rule="evenodd" d="M110.772 26.6143C110.566 26.6367 110.076 26.9349 109.852 27.0464C109.54 27.2019 109.229 27.3315 108.889 27.4489C105.314 28.6812 100.989 28.3804 97.8746 26.1519C94.3562 23.6345 93.0282 18.7923 93.4168 14.1753C93.6534 11.3653 94.5084 9.28777 96.0621 7.16767C96.2174 6.95573 96.5726 6.5471 96.5348 6.3103C93.5134 7.48722 91.5229 10.7339 90.8768 13.8683C90.062 17.8214 90.9137 22.0546 92.7174 24.7859C93.5303 26.0167 94.7661 27.3132 96.0217 28.1059C97.4242 28.9915 98.9926 29.5901 100.952 29.7794C103.753 30.0502 106.724 29.5974 109.043 28.1129C109.511 27.8133 110.629 26.9518 110.772 26.6143Z" fill="#BC9D65"/>
<path fill-rule="evenodd" clip-rule="evenodd" d="M19.8914 0.731398C20.1188 0.922035 20.0899 0.816654 20.0906 0.816822C20.1953 0.838989 21.0189 0.825788 21.6104 0.945099C23.7332 1.37333 23.0375 3.40524 22.7475 4.70496C22.5357 5.65467 22.3171 6.89272 22.0058 7.74009C21.6796 8.6281 21.4888 9.78664 21.1337 10.6349C20.9107 11.1678 20.8633 11.5219 20.6914 12.0777L19.7333 14.889C19.6348 15.1494 19.6016 15.3798 19.5108 15.609L17.3337 21.96C17.968 21.6394 18.7911 20.2639 19.173 19.6178L20.527 16.961C21.3319 15.271 23.5474 9.59388 24.015 8.0197C24.3307 6.95652 24.6854 5.92648 25.0338 4.89379C25.6096 3.18699 26.0451 1.9841 27.5415 1.20228C28.2623 0.82568 28.8564 0.930239 29.0225 0.668293C28.7169 0.359205 25.0799 0.220545 24.4183 0.235397C23.1706 0.263344 22.0996 0.323784 20.878 0.464306C20.2499 0.536533 19.9716 0.475605 19.8914 0.731398Z" fill="#BC9D65"/>
<path fill-rule="evenodd" clip-rule="evenodd" d="M148.141 17.3413C148.145 14.0992 148.298 10.7131 148.481 7.48273C148.585 5.62761 148.559 2.38633 149.996 1.40751C150.775 0.876827 151.491 0.941477 151.847 0.783726C151.822 0.540167 151.795 0.578548 151.508 0.541023C151.326 0.517265 151.138 0.494728 150.944 0.470165C147.141 -0.010664 147.103 0.296831 143.391 0.723806L143.411 1.09302C145.175 1.16715 146.087 1.7348 146.475 3.26725C147 5.34132 146.926 10.6654 147.118 13.165C147.179 13.949 147.261 14.7642 147.405 15.507C147.487 15.9348 147.66 16.6275 147.859 17.0073C147.951 17.1838 148.01 17.2888 148.141 17.3413Z" fill="#BC9D65"/>
<path fill-rule="evenodd" clip-rule="evenodd" d="M123.042 29.2619C123.227 29.3788 122.869 29.2882 123.228 29.3701L124.035 29.4275C124.388 29.4549 124.729 29.4778 125.078 29.5007C126.321 29.5824 130.825 29.6282 131.486 29.325C131.459 29.131 131.584 29.2283 131.324 29.1528C130.869 29.0207 130.493 29.1921 129.488 28.4886C128.933 28.0999 128.657 27.5198 128.485 26.6747C127.63 22.4792 128.29 13.0394 126.902 11.3032C126.784 11.6426 126.789 15.8854 126.77 16.6377C126.723 18.4105 126.657 20.1672 126.544 21.9354C126.45 23.4114 126.311 25.4606 125.961 26.8113C125.281 29.4327 123.298 28.8753 123.042 29.2619Z" fill="#BC9D65"/>
<path fill-rule="evenodd" clip-rule="evenodd" d="M53.2469 29.2669C53.4783 27.9509 53.5349 26.8692 53.5443 25.4749C53.5483 24.8917 53.6438 21.9472 53.2498 21.6676C53.1545 21.7123 53.1264 21.6678 53.0666 22.003C52.9084 22.8909 52.7452 23.675 52.4642 24.5475C52.0105 25.9561 51.5749 27.1526 50.3165 27.8487C48.6752 28.7568 46.9497 28.5142 45.7678 28.7048C46.7344 29.283 49.0174 29.583 50.3419 29.583C51.3829 29.583 52.2746 29.4322 53.2469 29.2669Z" fill="#BC9D65"/>
<path fill-rule="evenodd" clip-rule="evenodd" d="M45.7831 0.920504C46.3276 1.18769 48.9346 1.14644 50.9454 2.51527C51.8464 3.1285 52.3656 4.84056 52.602 5.99929C52.7656 6.80116 52.6839 7.30465 53.0022 7.32812C53.1936 7.1139 53.284 4.25727 53.2832 3.76112L53.1963 0.916667C53.167 0.445807 53.0929 0.533353 52.6601 0.455833C50.7868 0.120277 49.1553 0.187043 47.3037 0.475403L46.0417 0.705363C45.7574 0.768311 45.8077 0.694231 45.7831 0.920504Z" fill="#BC9D65"/>
<path fill-rule="evenodd" clip-rule="evenodd" d="M42.9057 15.2489C42.9923 15.3414 42.6227 15.3534 43.4035 15.4503C45.2695 15.682 47.0902 16.1187 48.0674 17.759C48.2354 18.0411 48.3471 18.2893 48.4611 18.6199C48.7394 19.4275 48.5438 19.4091 48.9189 19.4092C49.1033 19.0471 49.3187 15.6981 49.3187 15.0595C49.3187 14.5212 49.1388 11.8422 48.9807 11.4814C48.7482 11.4843 48.7916 11.478 48.6887 11.7963C48.0404 13.803 46.9985 14.4142 44.9493 14.8628C44.4934 14.9626 43.2029 15.0778 42.9057 15.2489Z" fill="#BC9D65"/>
</g>
<defs>
<clipPath id="clip0_48_343">
<rect width="184" height="47" fill="white"/>
</clipPath>
</defs>
</svg>
